<svg width="722" height="46" viewBox="0 0 722 46" fill="none" xmlns="http://www.w3.org/2000/svg">
<rect width="6.83927" height="6.83927" rx="1" fill="#1C2238"/>
<rect x="38.5178" width="6.83927" height="6.83927" rx="1" fill="#2D6AA4"/>
<rect y="12.8393" width="6.83927" height="6.83927" rx="1" fill="#17426B"/>
<rect x="12.8393" y="12.8393" width="6.83927" height="6.83927" rx="1" fill="#17426B"/>
<rect x="38.5178" y="12.8393" width="6.83927" height="6.83927" rx="1" fill="#17426B"/>
<rect y="25.6786" width="6.83927" height="6.83927" rx="1" fill="#1C2238"/>
<rect x="25.6785" y="25.6786" width="6.83927" height="6.83927" rx="1" fill="#1C2238"/>
<rect x="26" y="13" width="6.83927" height="6.83927" rx="1" fill="#1C2238"/>
<rect x="12.8393" y="38.5178" width="6.83927" height="6.83927" rx="1" fill="#2D6AA4"/>
<rect x="50.6785" width="6.83927" height="6.83927" rx="1" fill="#1C2238"/>
<rect x="63.5178" width="6.83927" height="6.83927" rx="1" fill="#17426B"/>
<rect x="76.3571" width="6.83927" height="6.83927" rx="1" fill="#17426B"/>
<rect x="89.1964" width="6.83927" height="6.83927" rx="1" fill="#17426B"/>
<rect x="63.5178" y="12.8393" width="6.83927" height="6.83927" rx="1" fill="#2D6AA4"/>
<rect x="76.3571" y="12.8393" width="6.83927" height="6.83927" rx="1" fill="#2D6AA4"/>
<rect x="50.6785" y="25.6786" width="6.83927" height="6.83927" rx="1" fill="#17426B"/>
<rect x="76.3571" y="25.6786" width="6.83927" height="6.83927" rx="1" fill="#17426B"/>
<rect x="50.6785" y="38.5178" width="6.83927" height="6.83927" rx="1" fill="#2D6AA4"/>
<rect x="76.3571" y="38.5178" width="6.83927" height="6.83927" rx="1" fill="#1C2238"/>
<rect x="114.196" width="6.83927" height="6.83927" rx="1" fill="#2D6AA4"/>
<rect x="127.036" width="6.83927" height="6.83927" rx="1" fill="#2D6AA4"/>
<rect x="139.875" width="6.83927" height="6.83927" rx="1" fill="#1C2238"/>
<rect x="101.357" y="12.8393" width="6.83927" height="6.83927" rx="1" fill="#1C2238"/>
<rect x="114.196" y="12.8393" width="6.83927" height="6.83927" rx="1" fill="#17426B"/>
<rect x="139.875" y="12.8393" width="6.83927" height="6.83927" rx="1" fill="#17426B"/>
<rect x="101.357" y="25.6786" width="6.83927" height="6.83927" rx="1" fill="#17426B"/>
<rect x="114.196" y="25.6786" width="6.83927" height="6.83927" rx="1" fill="#1C2238"/>
<rect x="127.036" y="38.5178" width="6.83927" height="6.83927" rx="1" fill="#1C2238"/>
<rect x="164.875" width="6.83927" height="6.83927" rx="1" fill="#17426B"/>
<rect x="177.714" width="6.83927" height="6.83927" rx="1" fill="#1C2238"/>
<rect x="190.553" width="6.83927" height="6.83927" rx="1" fill="#1C2238"/>
<rect x="152.036" y="12.8393" width="6.83927" height="6.83927" rx="1" fill="#2D6AA4"/>
<rect x="164.875" y="12.8393" width="6.83927" height="6.83927" rx="1" fill="#2D6AA4"/>
<rect x="177.714" y="12.8393" width="6.83927" height="6.83927" rx="1" fill="#17426B"/>
<rect x="190.553" y="25.6786" width="6.83927" height="6.83927" rx="1" fill="#2D6AA4"/>
<rect x="177.714" y="38.5178" width="6.83927" height="6.83927" rx="1" fill="#17426B"/>
<rect x="202.714" width="6.83927" height="6.83927" rx="1" fill="#17426B"/>
<rect x="215.553" width="6.83927" height="6.83927" rx="1" fill="#17426B"/>
<rect x="228.393" width="6.83927" height="6.83927" rx="1" fill="#2D6AA4"/>
<rect x="202.714" y="12.8393" width="6.83927" height="6.83927" rx="1" fill="#1C2238"/>
<rect x="228.393" y="12.8393" width="6.83927" height="6.83927" rx="1" fill="#17426B"/>
<rect x="241.232" y="12.8393" width="6.83927" height="6.83927" rx="1" fill="#1C2238"/>
<rect x="202.714" y="25.6786" width="6.83927" height="6.83927" rx="1" fill="#2D6AA4"/>
<rect x="215.553" y="25.6786" width="6.83927" height="6.83927" rx="1" fill="#17426B"/>
<rect x="241.232" y="25.6786" width="6.83927" height="6.83927" rx="1" fill="#2D6AA4"/>
<rect x="202.714" y="38.5178" width="6.83927" height="6.83927" rx="1" fill="#17426B"/>
<rect x="253.393" width="6.83927" height="6.83927" rx="1" fill="#2D6AA4"/>
<rect x="279.071" width="6.83927" height="6.83927" rx="1" fill="#17426B"/>
<rect x="291.911" width="6.83927" height="6.83927" rx="1" fill="#1C2238"/>
<rect x="253.393" y="12.8393" width="6.83927" height="6.83927" rx="1" fill="#17426B"/>
<rect x="266.232" y="12.8393" width="6.83927" height="6.83927" rx="1" fill="#2D6AA4"/>
<rect x="279.071" y="12.8393" width="6.83927" height="6.83927" rx="1" fill="#1C2238"/>
<rect x="253.393" y="25.6786" width="6.83927" height="6.83927" rx="1" fill="#1C2238"/>
<rect x="279.071" y="25.6786" width="6.83927" height="6.83927" rx="1" fill="#17426B"/>
<rect x="291.911" y="25.6786" width="6.83927" height="6.83927" rx="1" fill="#17426B"/>
<rect x="253.393" y="38.5178" width="6.83927" height="6.83927" rx="1" fill="#17426B"/>
<rect x="304.071" width="6.83927" height="6.83927" rx="1" fill="#1C2238"/>
<rect x="329.75" width="6.83927" height="6.83927" rx="1" fill="#2D6AA4"/>
<rect x="342.589" width="6.83927" height="6.83927" rx="1" fill="#2D6AA4"/>
<rect x="304.071" y="12.8393" width="6.83927" height="6.83927" rx="1" fill="#2D6AA4"/>
<rect x="316.911" y="12.8393" width="6.83927" height="6.83927" rx="1" fill="#2D6AA4"/>
<rect x="316.911" y="25.6786" width="6.83927" height="6.83927" rx="1" fill="#1C2238"/>
<rect x="304.071" y="38.5178" width="6.83927" height="6.83927" rx="1" fill="#1C2238"/>
<rect x="329.75" y="38.5178" width="6.83927" height="6.83927" rx="1" fill="#17426B"/>
<rect x="354.75" width="6.83927" height="6.83927" rx="1" fill="#17426B"/>
<rect x="380.428" width="6.83927" height="6.83927" rx="1" fill="#17426B"/>
<rect x="393.268" width="6.83927" height="6.83927" rx="1" fill="#1C2238"/>
<rect x="354.75" y="12.8393" width="6.83927" height="6.83927" rx="1" fill="#2D6AA4"/>
<rect x="367.589" y="12.8393" width="6.83927" height="6.83927" rx="1" fill="#1C2238"/>
<rect x="380.428" y="12.8393" width="6.83927" height="6.83927" rx="1" fill="#17426B"/>
<rect x="367.589" y="25.6786" width="6.83927" height="6.83927" rx="1" fill="#2D6AA4"/>
<rect x="393.268" y="25.6786" width="6.83927" height="6.83927" rx="1" fill="#17426B"/>
<rect x="367.589" y="38.5178" width="6.83927" height="6.83927" rx="1" fill="#17426B"/>
<rect x="405.428" width="6.83927" height="6.83927" rx="1" fill="#17426B"/>
<rect x="418.268" width="6.83927" height="6.83927" rx="1" fill="#2D6AA4"/>
<rect x="431.107" width="6.83927" height="6.83927" rx="1" fill="#1C2238"/>
<rect x="405.428" y="12.8393" width="6.83927" height="6.83927" rx="1" fill="#17426B"/>
<rect x="418.268" y="12.8393" width="6.83927" height="6.83927" rx="1" fill="#17426B"/>
<rect x="443.946" y="12.8393" width="6.83927" height="6.83927" rx="1" fill="#17426B"/>
<rect x="405.428" y="25.6786" width="6.83927" height="6.83927" rx="1" fill="#2D6AA4"/>
<rect x="443.946" y="25.6786" width="6.83927" height="6.83927" rx="1" fill="#17426B"/>
<rect x="418.268" y="38.5178" width="6.83927" height="6.83927" rx="1" fill="#17426B"/>
<rect x="431.107" y="38.5178" width="6.83927" height="6.83927" rx="1" fill="#17426B"/>
<rect x="456.107" width="6.83927" height="6.83927" rx="1" fill="#17426B"/>
<rect x="481.786" width="6.83927" height="6.83927" rx="1" fill="#17426B"/>
<rect x="494.625" width="6.83927" height="6.83927" rx="1" fill="#2D6AA4"/>
<rect x="456.107" y="12.8393" width="6.83927" height="6.83927" rx="1" fill="#2D6AA4"/>
<rect x="468.946" y="12.8393" width="6.83927" height="6.83927" rx="1" fill="#17426B"/>
<rect x="494.625" y="12.8393" width="6.83927" height="6.83927" rx="1" fill="#17426B"/>
<rect x="468.946" y="25.6786" width="6.83927" height="6.83927" rx="1" fill="#1C2238"/>
<rect x="481.786" y="25.6786" width="6.83927" height="6.83927" rx="1" fill="#17426B"/>
<rect x="494.625" y="25.6786" width="6.83927" height="6.83927" rx="1" fill="#17426B"/>
<rect x="468.946" y="38.5178" width="6.83927" height="6.83927" rx="1" fill="#17426B"/>
<rect x="494.625" y="38.5178" width="6.83927" height="6.83927" rx="1" fill="#2D6AA4"/>
<rect x="506.786" width="6.83927" height="6.83927" rx="1" fill="#1C2238"/>
<rect x="519.625" width="6.83927" height="6.83927" rx="1" fill="#17426B"/>
<rect x="532.464" width="6.83927" height="6.83927" rx="1" fill="#2D6AA4"/>
<rect x="545.303" width="6.83927" height="6.83927" rx="1" fill="#17426B"/>
<rect x="506.786" y="12.8393" width="6.83927" height="6.83927" rx="1" fill="#17426B"/>
<rect x="519.625" y="12.8393" width="6.83927" height="6.83927" rx="1" fill="#17426B"/>
<rect x="545.303" y="12.8393" width="6.83927" height="6.83927" rx="1" fill="#2D6AA4"/>
<rect x="519.625" y="25.6786" width="6.83927" height="6.83927" rx="1" fill="#1C2238"/>
<rect x="532.464" y="25.6786" width="6.83927" height="6.83927" rx="1" fill="#1C2238"/>
<rect x="545.303" y="25.6786" width="6.83927" height="6.83927" rx="1" fill="#1C2238"/>
<rect x="519.625" y="38.5178" width="6.83927" height="6.83927" rx="1" fill="#17426B"/>
<rect x="545.303" y="38.5178" width="6.83927" height="6.83927" rx="1" fill="#17426B"/>
<rect x="557.464" width="6.83927" height="6.83927" rx="1" fill="#1C2238"/>
<rect x="570.303" width="6.83927" height="6.83927" rx="1" fill="#17426B"/>
<rect x="583.143" width="6.83927" height="6.83927" rx="1" fill="#2D6AA4"/>
<rect x="595.982" width="6.83927" height="6.83927" rx="1" fill="#1C2238"/>
<rect x="570.303" y="12.8393" width="6.83927" height="6.83927" rx="1" fill="#17426B"/>
<rect x="583.143" y="12.8393" width="6.83927" height="6.83927" rx="1" fill="#17426B"/>
<rect x="570.303" y="25.6786" width="6.83927" height="6.83927" rx="1" fill="#1C2238"/>
<rect x="570.303" y="38.5178" width="6.83927" height="6.83927" rx="1" fill="#17426B"/>
<rect x="620.982" width="6.83927" height="6.83927" rx="1" fill="#17426B"/>
<rect x="646.66" width="6.83927" height="6.83927" rx="1" fill="#2D6AA4"/>
<rect x="608.143" y="12.8393" width="6.83927" height="6.83927" rx="1" fill="#17426B"/>
<rect x="620.982" y="12.8393" width="6.83927" height="6.83927" rx="1" fill="#17426B"/>
<rect x="633.821" y="12.8393" width="6.83927" height="6.83927" rx="1" fill="#1C2238"/>
<rect x="608.143" y="25.6786" width="6.83927" height="6.83927" rx="1" fill="#2D6AA4"/>
<rect x="633.821" y="25.6786" width="6.83927" height="6.83927" rx="1" fill="#17426B"/>
<rect x="608.143" y="38.5178" width="6.83927" height="6.83927" rx="1" fill="#17426B"/>
<rect x="620.982" y="38.5178" width="6.83927" height="6.83927" rx="1" fill="#1C2238"/>
<rect x="659" width="6.83927" height="6.83927" rx="1" fill="#17426B"/>
<rect x="684.5" width="6.83927" height="6.83927" rx="1" fill="#2D6AA4"/>
<rect x="697.339" width="6.83927" height="6.83927" rx="1" fill="#1C2238"/>
<rect x="658.821" y="12.8393" width="6.83927" height="6.83927" rx="1" fill="#2D6AA4"/>
<rect x="671.66" y="12.8393" width="6.83927" height="6.83927" rx="1" fill="#1C2238"/>
<rect x="697.339" y="12.8393" width="6.83927" height="6.83927" rx="1" fill="#17426B"/>
<rect x="671.66" y="25.6786" width="6.83927" height="6.83927" rx="1" fill="#17426B"/>
<rect x="684.5" y="25.6786" width="6.83927" height="6.83927" rx="1" fill="#1C2238"/>
<rect x="697.339" y="25.6786" width="6.83927" height="6.83927" rx="1" fill="#2D6AA4"/>
<rect x="658.821" y="38.5178" width="6.83927" height="6.83927" rx="1" fill="#2D6AA4"/>
<rect x="684.5" y="38.5178" width="6.83927" height="6.83927" rx="1" fill="#2D6AA4"/>
<rect x="710" width="6.83927" height="6.83927" rx="1" fill="#2D6AA4"/>
<rect x="709.5" y="38.5178" width="6.83927" height="6.83927" rx="1" fill="#1C2238"/>
</svg>
