<svg width="114" height="113" viewBox="0 0 114 113" fill="none" xmlns="http://www.w3.org/2000/svg">
<path d="M71.3478 53.7004L76.7345 48.3138C76.9297 48.1185 76.9297 47.8019 76.7345 47.6067L64.8884 35.7606C64.6932 35.5654 64.3766 35.5653 64.1813 35.7606L58.7946 41.1473C58.5994 41.3426 58.5994 41.6591 58.7946 41.8544L70.6407 53.7004C70.8359 53.8957 71.1525 53.8957 71.3478 53.7004Z" fill="#2486E7"/>
<path d="M0.125473 99.8152C0.0595743 99.8811 0.0136633 99.9632 0.00638638 100.056C-0.0420456 100.674 0.0708036 103.332 4.61565 107.878C9.16056 112.423 11.8191 112.536 12.4375 112.487C12.5305 112.48 12.6126 112.434 12.6785 112.368L54.6921 70.3556C54.8874 70.1603 54.8874 69.8437 54.6921 69.6485L42.8462 57.8026C42.6509 57.6073 42.3344 57.6073 42.1391 57.8026L0.125473 99.8152Z" fill="#2486E7"/>
<path d="M78.3538 39.8498C78.3713 39.7478 78.4199 39.6537 78.4932 39.5804L112.141 5.93253C112.336 5.73726 112.336 5.42068 112.141 5.22542L107.269 0.353523C107.074 0.158261 106.757 0.158261 106.562 0.353523L72.9142 34.0014C72.841 34.0747 72.7468 34.1233 72.6448 34.1408L69.4848 34.6802C69.0848 34.7485 68.9285 35.2398 69.2154 35.5267L76.968 43.2784C77.2549 43.5653 77.7461 43.409 77.8144 43.009L78.3538 39.8498Z" fill="#2486E7"/>
<path d="M49.3052 35.7606C49.1099 35.5653 48.7934 35.5653 48.5981 35.7606L36.7522 47.6065C36.5569 47.8017 36.5569 48.1183 36.7522 48.3136L100.807 112.368C100.873 112.434 100.955 112.48 101.048 112.487C101.666 112.536 104.324 112.423 108.87 107.878C113.415 103.332 113.527 100.674 113.479 100.056C113.472 99.9632 113.426 99.8811 113.36 99.8152L49.3052 35.7606Z" fill="#71BAFE"/>
<path d="M35.6719 43.0089C35.7402 43.4089 36.2314 43.5652 36.5183 43.2783L44.27 35.5266C44.5569 35.2397 44.4006 34.7485 44.0006 34.6802L40.8415 34.1408C40.7395 34.1233 40.6454 34.0747 40.5721 34.0015L6.92422 0.353523C6.72896 0.158261 6.41238 0.158261 6.21712 0.353523L1.34522 5.22542C1.14996 5.42068 1.14996 5.73726 1.34522 5.93253L34.9932 39.5804C35.0664 39.6537 35.115 39.7478 35.1325 39.8498L35.6719 43.0089Z" fill="#71BAFE"/>
<rect x="47.0608" y="93.8208" width="6.83927" height="6.83927" rx="1" fill="#71BAFE"/>
<rect x="56.7498" y="93.8208" width="6.83927" height="6.83927" rx="1" fill="#2386E7"/>
<rect x="47.0608" y="103.225" width="6.83927" height="6.83927" rx="1" fill="#2386E7"/>
<rect x="56.7498" y="103.225" width="6.83927" height="6.83927" rx="1" fill="#71BAFE"/>
</svg>
