<svg width="114" height="113" viewBox="0 0 114 113" fill="none" xmlns="http://www.w3.org/2000/svg">
<path d="M71.3478 53.7005L76.7345 48.3138C76.9297 48.1185 76.9297 47.8019 76.7345 47.6067L64.8884 35.7606C64.6932 35.5654 64.3766 35.5654 64.1813 35.7606L58.7946 41.1473C58.5994 41.3426 58.5994 41.6592 58.7946 41.8544L70.6407 53.7005C70.8359 53.8957 71.1525 53.8957 71.3478 53.7005Z" fill="#439CF0"/>
<path d="M0.125473 99.8152C0.0595743 99.8811 0.0136633 99.9632 0.00638638 100.056C-0.0420456 100.674 0.0708036 103.332 4.61565 107.878C9.16056 112.423 11.8191 112.536 12.4375 112.487C12.5305 112.48 12.6126 112.434 12.6785 112.368L54.6921 70.3556C54.8874 70.1603 54.8874 69.8437 54.6921 69.6485L42.8462 57.8026C42.6509 57.6073 42.3344 57.6073 42.1391 57.8026L0.125473 99.8152Z" fill="#439CF0"/>
<path d="M78.3539 39.8499C78.3713 39.7478 78.42 39.6537 78.4932 39.5805L112.141 5.93256C112.336 5.73729 112.336 5.42071 112.141 5.22545L107.269 0.353554C107.074 0.158291 106.757 0.158291 106.562 0.353554L72.9142 34.0015C72.841 34.0747 72.7468 34.1234 72.6448 34.1408L69.4848 34.6803C69.0848 34.7486 68.9285 35.2398 69.2154 35.5267L76.968 43.2784C77.2549 43.5653 77.7461 43.409 77.8144 43.009L78.3539 39.8499Z" fill="#439CF0"/>
<path d="M49.3052 35.7606C49.1099 35.5653 48.7934 35.5653 48.5981 35.7606L36.7522 47.6065C36.5569 47.8017 36.5569 48.1183 36.7522 48.3136L100.807 112.368C100.873 112.434 100.955 112.48 101.048 112.487C101.666 112.536 104.324 112.423 108.87 107.878C113.415 103.332 113.527 100.674 113.479 100.056C113.472 99.9632 113.426 99.8811 113.36 99.8152L49.3052 35.7606Z" fill="#082C50"/>
<path d="M35.6719 43.0089C35.7402 43.4089 36.2314 43.5653 36.5183 43.2783L44.27 35.5267C44.5569 35.2397 44.4006 34.7486 44.0006 34.6803L40.8415 34.1408C40.7394 34.1234 40.6453 34.0747 40.5721 34.0015L6.92419 0.353553C6.72893 0.158291 6.41235 0.158291 6.21709 0.353553L1.34519 5.22545C1.14993 5.42071 1.14993 5.73729 1.34519 5.93256L34.9931 39.5805C35.0663 39.6537 35.115 39.7478 35.1324 39.8499L35.6719 43.0089Z" fill="#082C50"/>
<rect x="47.0608" y="93.8208" width="6.83927" height="6.83927" rx="1" fill="#082C50"/>
<rect x="56.7498" y="93.8208" width="6.83927" height="6.83927" rx="1" fill="#439CF0"/>
<rect x="47.0609" y="103.225" width="6.83927" height="6.83927" rx="1" fill="#439CF0"/>
<rect x="56.7498" y="103.225" width="6.83927" height="6.83927" rx="1" fill="#082C50"/>
</svg>
